<?xml version="1.0" encoding="utf-8"?>
<!-- Generator: Adobe Illustrator 23.0.1, SVG Export Plug-In . SVG Version: 6.00 Build 0)  -->
<svg version="1.1" id="Layer_1" xmlns="http://www.w3.org/2000/svg" xmlns:xlink="http://www.w3.org/1999/xlink" x="0px" y="0px"
	 viewBox="0 0 96 96" style="enable-background:new 0 0 96 96;" xml:space="preserve">
<style type="text/css">
	.st0{fill:#FFFFFF;}
</style>
<g transform="scale(1 -1)">
	<g transform="translate(0 -96)">
		<g>
			<path class="st0" d="M85.9,18.4h-9.2l1.7,1.9l0,0.1c3.5,4.3,3.5,7.9,2,11.8L75.9,44c-0.5,1.1-1.5,3.1-3.1,4.1L65,53.4
				c0.6,0.5,1.1,1.1,1.6,1.6c1.5,1.5,3.1,3.4,3.3,5c0,0.1,0,0.2,0,0.4c0,0.1,0,0.2,0,0.4c0,0.3,0,0.5-0.1,0.8
				c-6.8,17.4-12,26.6-21.8,27.9h-0.4C38.1,88.1,32.9,79.1,26,61.5c-0.1-0.3-0.1-0.5-0.1-0.8c0-0.1,0-0.2,0-0.4c0-0.1,0-0.3,0-0.4
				c0.2-1.6,1.8-3.4,3.3-5c0.5-0.5,1-1,1.6-1.6l-7.8-5.3c-1.5-1.1-2.6-3-3.1-4.1l-4.6-11.7c-1.5-4-1.5-7.5,2-11.8l0-0.1l1.7-1.9H9.6
				c-0.8,0-1.5-0.7-1.5-1.5c0-0.8,0.7-1.5,1.5-1.5h12.3l1.7-1.9l0.1-4c0-0.8,0.7-1.5,1.5-1.5h45.6c0.8,0,1.5,0.6,1.5,1.5l0.1,4
				l1.7,1.9h11.9c0.8,0,1.5,0.7,1.5,1.5C87.4,17.7,86.7,18.4,85.9,18.4z M30.9,65.5c5.6,13.4,9.9,19.2,15.9,20.6l1.2,0.2l1.2-0.2
				c4.8-1.2,8.5-5,12.5-13.2L49.2,85.3c-0.3,0.3-0.8,0.3-1.1,0c-0.3-0.3-0.3-0.8,0-1.1l15.4-15.4c0.5-1.1,1-2.2,1.4-3.4
				c-0.3,0.1-0.5,0.2-0.8,0.3c0,0-0.1,0.1-0.1,0.1L49.2,80.8c-0.3,0.3-0.8,0.3-1.1,0c-0.3-0.3-0.3-0.8,0-1.1l13-13
				c-1,0.2-2,0.5-3,0.6c0,0,0,0.1-0.1,0.1l-8.8,8.8c-0.3,0.3-0.8,0.3-1.1,0c-0.3-0.3-0.3-0.8,0-1.1l7.5-7.5C54.8,67.9,53.9,68,53,68
				l-3.8,3.8c-0.3,0.3-0.8,0.3-1.1,0c-0.3-0.3-0.3-0.8,0-1.1l2.6-2.6c-0.9,0-1.9,0.1-2.8,0.1c-5.8,0-11.1-0.7-15-2
				C32.3,66.1,31.6,65.8,30.9,65.5z M58.6,62.6L58,60.3c-0.5-1.7-1-3.3-1.6-4.8l-0.9-2.1c0-0.1-0.1-0.1-0.1-0.2l-0.7-0.6
				c-1.4-1.1-3-1.8-4.6-2.2L48.1,50h-0.3l-1.9,0.4c-1.6,0.4-3.2,1.1-4.6,2.2l-0.7,0.6c-0.1,0.1-0.1,0.1-0.1,0.2l-0.9,2.1
				c-0.6,1.5-1.2,3-1.6,4.8l-0.6,2.3c-0.1,0.2,0.1,0.5,0.3,0.6l0.8,0.4h19.1l0.8-0.4C58.5,63.1,58.6,62.9,58.6,62.6z M69.3,11H26.6
				l-0.1,1.7h42.8L69.3,11z M69.4,15.7h-43l-0.9,26.9c0,0.5,0.5,1,1,1h42.7c0.6,0,1-0.5,1-1L69.4,15.7z"/>
			<polygon class="st0" points="48.3,57.4 50.4,57.4 48.1,62.5 			"/>
		</g>
	</g>
</g>
</svg>
